HIERARCHY
ROOT hip
{
  OFFSET 0 0 0
  CHANNELS 6 Xposition Yposition Zposition Zrotation Yrotation Xrotation
  JOINT abdomen
  {
    OFFSET 0 20.6881 -0.73152
    CHANNELS 3 Zrotation Xrotation Yrotation
    JOINT chest
    {
      OFFSET 0 11.7043 -0.48768
      CHANNELS 3 Zrotation Xrotation Yrotation
      JOINT neck
      {
        OFFSET 0 22.1894 -2.19456
        CHANNELS 3 Zrotation Xrotation Yrotation
        JOINT head
        {
          OFFSET -0.24384 7.07133 1.2192
          CHANNELS 3 Zrotation Xrotation Yrotation
          JOINT leftEye
          {
            OFFSET 4.14528 8.04674 8.04672
            CHANNELS 3 Zrotation Xrotation Yrotation
            End Site
            {
              OFFSET 1 0 0
            }
          }
          JOINT rightEye
          {
            OFFSET -3.6576 8.04674 8.04672
            CHANNELS 3 Zrotation Xrotation Yrotation
            End Site
            {
              OFFSET 1 0 0
            }
          }
        }
      }
      JOINT rCollar
      {
        OFFSET -2.68224 19.2634 -4.8768
        CHANNELS 3 Zrotation Xrotation Yrotation
        JOINT rShldr
        {
          OFFSET -8.77824 -1.95073 1.46304
          CHANNELS 3 Zrotation Xrotation Yrotation
          JOINT rForeArm
          {
            OFFSET -28.1742 -1.7115 0.48768
            CHANNELS 3 Zrotation Xrotation Yrotation
            JOINT rHand
            {
              OFFSET -22.5879 0.773209 7.07136
              CHANNELS 3 Zrotation Xrotation Yrotation
              JOINT rThumb1
              {
                OFFSET -1.2192 -0.487915 3.41376
                CHANNELS 3 Zrotation Xrotation Yrotation
                JOINT rThumb2
                {
                  OFFSET -3.37035 -0.52449 3.41376
                  CHANNELS 3 Zrotation Xrotation Yrotation
                  End Site
                  {
                    OFFSET -1.78271 -1.18214 1.43049
                  }
                }
              }
              JOINT rIndex1
              {
                OFFSET -7.75947 0.938293 5.60832
                CHANNELS 3 Zrotation Xrotation Yrotation
                JOINT rIndex2
                {
                  OFFSET -2.54057 -0.884171 1.56538
                  CHANNELS 3 Zrotation Xrotation Yrotation
                  End Site
                  {
                    OFFSET -1.62519 -0.234802 1.16502
                  }
                }
              }
              JOINT rMid1
              {
                OFFSET -8.24714 1.18213 3.41376
                CHANNELS 3 Zrotation Xrotation Yrotation
                JOINT rMid2
                {
                  OFFSET -3.10165 -0.590103 1.0647
                  CHANNELS 3 Zrotation Xrotation Yrotation
                  End Site
                  {
                    OFFSET -2.48547 -0.328903 0.83742
                  }
                }
              }
              JOINT rRing1
              {
                OFFSET -8.82822 0.546677 1.51678
                CHANNELS 3 Zrotation Xrotation Yrotation
                JOINT rRing2
                {
                  OFFSET -2.60934 -0.819778 -0.0198488
                  CHANNELS 3 Zrotation Xrotation Yrotation
                  End Site
                  {
                    OFFSET -2.33842 -0.294052 0.168128
                  }
                }
              }
              JOINT rPinky1
              {
                OFFSET -8.27202 -0.0477905 -0.4584
                CHANNELS 3 Zrotation Xrotation Yrotation
                JOINT rPinky2
                {
                  OFFSET -1.82734 -0.647385 -0.700984
                  CHANNELS 3 Zrotation Xrotation Yrotation
                  End Site
                  {
                    OFFSET -1.69225 -0.51767 -0.607171
                  }
                }
              }
            }
          }
        }
      }
      JOINT lCollar
      {
        OFFSET 2.68224 19.2634 -4.8768
        CHANNELS 3 Zrotation Xrotation Yrotation
        JOINT lShldr
        {
          OFFSET 8.77824 -1.95073 1.46304
          CHANNELS 3 Zrotation Xrotation Yrotation
          JOINT lForeArm
          {
            OFFSET 28.1742 -1.7115 0.48768
            CHANNELS 3 Zrotation Xrotation Yrotation
            JOINT lHand
            {
              OFFSET 22.5879 0.773209 7.07136
              CHANNELS 3 Zrotation Xrotation Yrotation
              JOINT lThumb1
              {
                OFFSET 1.2192 -0.487915 3.41376
                CHANNELS 3 Zrotation Xrotation Yrotation
                JOINT lThumb2
                {
                  OFFSET 3.37035 -0.52449 3.41376
                  CHANNELS 3 Zrotation Xrotation Yrotation
                  End Site
                  {
                    OFFSET 1.78271 -1.18214 1.43049
                  }
                }
              }
              JOINT lIndex1
              {
                OFFSET 7.75947 0.938293 5.60832
                CHANNELS 3 Zrotation Xrotation Yrotation
                JOINT lIndex2
                {
                  OFFSET 2.54057 -0.884171 1.56538
                  CHANNELS 3 Zrotation Xrotation Yrotation
                  End Site
                  {
                    OFFSET 1.62519 -0.234802 1.16502
                  }
                }
              }
              JOINT lMid1
              {
                OFFSET 8.24714 1.18213 3.41376
                CHANNELS 3 Zrotation Xrotation Yrotation
                JOINT lMid2
                {
                  OFFSET 3.10165 -0.590103 1.0647
                  CHANNELS 3 Zrotation Xrotation Yrotation
                  End Site
                  {
                    OFFSET 2.48547 -0.328903 0.83742
                  }
                }
              }
              JOINT lRing1
              {
                OFFSET 8.82822 0.546677 1.51678
                CHANNELS 3 Zrotation Xrotation Yrotation
                JOINT lRing2
                {
                  OFFSET 2.60934 -0.819778 -0.0198488
                  CHANNELS 3 Zrotation Xrotation Yrotation
                  End Site
                  {
                    OFFSET 2.33842 -0.294052 0.168128
                  }
                }
              }
              JOINT lPinky1
              {
                OFFSET 8.27202 -0.0477905 -0.4584
                CHANNELS 3 Zrotation Xrotation Yrotation
                JOINT lPinky2
                {
                  OFFSET 1.82734 -0.647385 -0.700984
                  CHANNELS 3 Zrotation Xrotation Yrotation
                  End Site
                  {
                    OFFSET 1.69225 -0.51767 -0.607171
                  }
                }
              }
            }
          }
        }
      }
    }
  }
  JOINT rButtock
  {
    OFFSET -8.77824 4.35084 1.2192
    CHANNELS 3 Zrotation Xrotation Yrotation
    JOINT rThigh
    {
      OFFSET 0 -1.70687 -2.19456
      CHANNELS 3 Zrotation Xrotation Yrotation
      JOINT rShin
      {
        OFFSET 0 -36.8199 0.73152
        CHANNELS 3 Zrotation Xrotation Yrotation
        JOINT rFoot
        {
          OFFSET 0.73152 -45.1104 -5.12064
          CHANNELS 3 Zrotation Xrotation Yrotation
          End Site
          {
            OFFSET -1.1221 -3.69964 12.103
          }
        }
      }
    }
  }
  JOINT lButtock
  {
    OFFSET 8.77824 4.35084 1.2192
    CHANNELS 3 Zrotation Xrotation Yrotation
    JOINT lThigh
    {
      OFFSET 0 -1.70687 -2.19456
      CHANNELS 3 Zrotation Xrotation Yrotation
      JOINT lShin
      {
        OFFSET 0 -36.8199 0.73152
        CHANNELS 3 Zrotation Xrotation Yrotation
        JOINT lFoot
        {
          OFFSET -0.73152 -45.1104 -5.12064
          CHANNELS 3 Zrotation Xrotation Yrotation
          End Site
          {
            OFFSET 1.1221 -3.69964 12.103
          }
        }
      }
    }
  }
}
MOTION
Frames:	4
Frame Time:	0.00833333
-188.015 82.6925 -18.6716 0.0 0.0 0.0 -1.54497 -0.00284619 -0.0420523 -0.425434 0.00111008 -0.073677 9.57764e-15 1.59028e-15 -4.22417e-16 2.95583e-14 1.59028e-14 -1.39615e-15 -0.0 0.0 0.0 -0.0 0.0 0.0 4.81938e-15 4.07664e-18 -1.49089e-16 1.04565e-13 -1.2424e-16 -3.77691e-15 1.78255e-12 -5.27972e-13 -1.39944e-13 2.03673e-11 5.45192e-13 -9.79611e-13 4.80454e-11 3.88532e-14 -2.41404e-12 8.29644e-11 6.67917e-14 -4.18322e-12 4.8051e-11 3.93594e-14 -2.42676e-12 7.73091 5.47488 0.417314 4.80448e-11 3.90612e-14 -2.4204e-12 2.90554 0.965183 0.102902 4.80534e-11 3.91606e-14 -2.41881e-12 10.2786 0.731801 0.0259123 4.80466e-11 4.09496e-14 -2.41722e-12 2.22167 -0.733487 -0.20892 4.62319e-15 5.43552e-18 -3.47873e-16 1.02234e-13 -1.86361e-17 -5.76476e-15 1.77763e-12 5.35526e-13 -1.11319e-13 2.03605e-11 -4.98925e-13 -9.98694e-13 4.80244e-11 8.06383e-14 -2.42358e-12 8.29413e-11 1.36764e-13 -4.18084e-12 4.80176e-11 8.18993e-14 -2.41722e-12 -7.73091 5.47488 -0.417314 4.80249e-11 8.05078e-14 -2.42358e-12 -2.90554 0.965183 -0.102902 4.80214e-11 8.04084e-14 -2.42358e-12 -10.2786 0.731801 -0.0259123 4.80327e-11 8.3092e-14 -2.42676e-12 -2.22167 -0.733487 0.20892 -2.03217e-16 0.0 -3.88251e-19 -0.631399 -1.92333 -0.00659052 -0.00945281 -2.07853 -0.0781799 -0.541137 3.99724 0.144596 2.03217e-16 0.0 3.88251e-19 -1.71409 -6.5491 0.158517 -0.00227364 6.30068 -0.0690988 0.559132 0.243941 -0.0686045
-184.067 81.0823 -25.2579 92.5147 86.6102 97.4277 -3.34475 -1.55282 -0.483645 0.043298 0.170261 -0.165494 0.707349 0.843762 0.0304447 0.33516 3.7746 0.344809 -0.0 0.0 0.0 -0.0 0.0 0.0 -3.2037e-14 5.94448e-13 1.03624e-15 23.4965 -7.44786 -0.0457478 -1.43214 -0.449985 2.40552 0.286571 11.9239 1.54773 7.09118e-10 1.00002e-10 -9.81803e-11 1.21921e-09 1.83795e-10 -1.91184e-10 7.09122e-10 1.00003e-10 -9.81922e-11 7.73091 5.47488 0.417314 7.09115e-10 1e-10 -9.81782e-11 2.90554 0.965183 0.102902 7.09125e-10 1.00002e-10 -9.81835e-11 10.2786 0.731801 0.0259123 7.09117e-10 1.00004e-10 -9.81799e-11 2.22167 -0.733487 -0.20892 -3.22447e-14 5.94449e-13 8.07951e-16 -22.2174 -0.355772 -1.61083 1.56812 -0.507173 -2.62684 -0.0698585 5.8686 -0.809233 -8.59669e-11 2.13451e-10 6.8104e-10 -1.37067e-10 3.67456e-10 1.17749e-09 -8.59712e-11 2.13454e-10 6.81049e-10 -7.73091 5.47488 -0.417314 -8.59661e-11 2.13453e-10 6.81041e-10 -2.90554 0.965183 -0.102902 -8.59704e-11 2.13453e-10 6.8104e-10 -10.2786 0.731801 -0.0259123 -8.59589e-11 2.13454e-10 6.81035e-10 -2.22167 -0.733487 0.20892 -2.03217e-16 0.0 -3.88251e-19 -3.48119 -5.3954 1.22037 0.0182058 6.60933 0.0819623 -1.18297 -1.11038 -5.39956 2.03217e-16 0.0 3.88251e-19 -1.14154 -9.27051 -1.96523 -0.0130245 14.0317 -0.211967 1.14831 -7.04994 3.26724
-184.153 81.1109 -25.2051 83.2836 86.6506 88.6138 -5.26882 -3.19278 -0.947364 0.531595 0.350138 -0.261345 1.45643 1.7301 0.0616218 0.643871 7.77074 0.71126 -0.0 0.0 0.0 -0.0 0.0 0.0 -7.24695e-14 1.23816e-12 2.03444e-15 48.3284 -15.3371 -0.0960774 -2.90482 -0.922938 4.94855 -0.173781 24.5067 3.4248 1.43353e-09 2.19957e-10 -2.22331e-10 2.46368e-09 4.03104e-10 -4.29204e-10 1.43354e-09 2.19958e-10 -2.22342e-10 7.73091 5.47488 0.417314 1.43353e-09 2.19953e-10 -2.2232e-10 2.90554 0.965183 0.102902 1.43354e-09 2.19958e-10 -2.22333e-10 10.2786 0.731801 0.0259123 1.43353e-09 2.19959e-10 -2.22327e-10 2.22167 -0.733487 -0.20892 -7.26916e-14 1.23816e-12 1.77353e-15 -45.7222 -0.72528 -3.31369 3.17613 -1.04012 -5.40579 0.040226 12.0676 -1.69328 -2.4824e-10 4.50165e-10 1.43585e-09 -4.04722e-10 7.75082e-10 2.48279e-09 -2.48242e-10 4.5017e-10 1.43586e-09 -7.73091 5.47488 -0.417314 -2.48239e-10 4.5017e-10 1.43585e-09 -2.90554 0.965183 -0.102902 -2.48244e-10 4.50169e-10 1.43584e-09 -10.2786 0.731801 -0.0259123 -2.48232e-10 4.50168e-10 1.43584e-09 -2.22167 -0.733487 0.20892 -2.03217e-16 0.0 -3.88251e-19 -6.3281 -9.0601 2.54563 -0.00681547 15.7941 0.259929 -2.93557 -6.39445 -11.3338 2.03217e-16 0.0 3.88251e-19 -0.76469 -12.1257 -4.26765 0.0209348 22.205 -0.378485 2.72598 -14.6805 6.9872
-184.052 81.0563 -25.1889 82.3831 86.6862 87.2609 -7.0162 -4.65162 -1.37081 0.982388 0.508556 -0.349139 2.11936 2.53128 0.0914134 0.86689 11.3221 1.05267 -0.0 0.0 0.0 -0.0 0.0 0.0 -1.0575e-13 1.78334e-12 3.40691e-15 70.4515 -22.3435 -0.147132 -4.18337 -1.34044 7.21832 -1.44836 35.6546 5.59408 2.03126e-09 2.99928e-10 -2.89713e-10 3.4917e-09 5.51251e-10 -5.65185e-10 2.03126e-09 2.99929e-10 -2.89723e-10 7.73091 5.47488 0.417314 2.03126e-09 2.99923e-10 -2.89694e-10 2.90554 0.965183 0.102902 2.03127e-09 2.99929e-10 -2.89713e-10 10.2786 0.731801 0.0259123 2.03126e-09 2.99931e-10 -2.89705e-10 2.22167 -0.733487 -0.20892 -1.05981e-13 1.78334e-12 3.1196e-15 -66.7121 -1.06394 -4.83322 4.56528 -1.50873 -7.88296 0.308335 17.5914 -2.53353 -3.53949e-10 6.40192e-10 2.04797e-09 -5.77085e-10 1.1021e-09 3.54083e-09 -3.53949e-10 6.40198e-10 2.04798e-09 -7.73091 5.47488 -0.417314 -3.53948e-10 6.40199e-10 2.04797e-09 -2.90554 0.965183 -0.102902 -3.53954e-10 6.40198e-10 2.04797e-09 -10.2786 0.731801 -0.0259123 -3.53942e-10 6.40195e-10 2.04796e-09 -2.22167 -0.733487 0.20892 -2.03217e-16 0.0 -3.88251e-19 -8.72564 -12.3177 3.74438 -0.082038 23.9845 0.43836 -5.42899 -10.8686 -16.7941 2.03217e-16 0.0 3.88251e-19 -0.619142 -14.6432 -6.34035 0.097713 29.4929 -0.55096 5.01764 -21.3356 10.5986
